<svg xmlns="http://www.w3.org/2000/svg" viewBox="-0.5 -0.5 16 16" fill="none" stroke="#000000" stroke-linecap="round" stroke-linejoin="round" id="Brand-Bluesky--Streamline-Tabler" height="24" width="24">
  <desc>Brand Bluesky Streamline Icon: https://streamlinehq.com</desc>
  <path d="M3.959375 3.215C2.925625 2.4656249999999997 1.25 1.8856249999999999 1.25 3.7312499999999997c0 0.36874999999999997 0.21875 3.095625 0.34750000000000003 3.538125C2.043125 8.80875 3.55375 8.988125 5 8.75c-2.528125 0.415625 -3.055625 2.005 -1.6668749999999999 3.38125C3.976875 12.7675 4.5287500000000005 13.125 5 13.125c1.25 0 1.95875 -1.730625 2.1875 -2.1875 0.208125 -0.416875 0.3125 -0.729375 0.3125 -0.9375 0 0.208125 0.10437500000000001 0.520625 0.3125 0.9375 0.22875 0.456875 0.9375 2.1875 2.1875 2.1875 0.47125 0 1.023125 -0.35687499999999994 1.6668749999999999 -0.99375C13.055625 10.754375 12.528125000000001 9.165 10 8.75c1.44625 0.2375 2.9562500000000003 0.05875 3.4025 -1.480625 0.12875 -0.4425 0.34750000000000003 -3.17 0.34750000000000003 -3.538125 0 -1.8456249999999998 -1.675 -1.265625 -2.709375 -0.51625C9.6075 4.25375 8.065624999999999 6.37 7.5 7.5c-0.565625 -1.1300000000000001 -2.1075 -3.24625 -3.540625 -4.285z" stroke-width="1"></path>
</svg>