<svg width="24" height="24" viewBox="0 0 24 24" xmlns="http://www.w3.org/2000/svg" fill="none">
  <path d="M16.9999 9C16.9975 6.04291 16.9528 4.51121 16.092 3.46243C15.9258 3.25989 15.7401 3.07418 15.5376 2.90796C14.4312 2 12.7875 2 9.5 2C6.21252 2 4.56878 2 3.46243 2.90796C3.25989 3.07417 3.07418 3.25989 2.90796 3.46243C2 4.56878 2 6.21252 2 9.5C2 12.7875 2 14.4312 2.90796 15.5376C3.07417 15.7401 3.25989 15.9258 3.46243 16.092C4.51121 16.9528 6.04291 16.9975 9 16.9999" stroke-width="1.5" stroke-linecap="round" stroke-linejoin="round"/>
  <path d="M14 8.25C13.5858 8.25 13.25 8.58579 13.25 9C13.25 9.41421 13.5858 9.75 14 9.75V8.25ZM17 9.75C17.4142 9.75 17.75 9.41421 17.75 9C17.75 8.58579 17.4142 8.25 17 8.25V9.75ZM9.75 14C9.75 13.5858 9.41421 13.25 9 13.25C8.58579 13.25 8.25 13.5858 8.25 14H9.75ZM8.25 17C8.25 17.4142 8.58579 17.75 9 17.75C9.41421 17.75 9.75 17.4142 9.75 17H8.25ZM11.558 9.74363C11.9687 9.68978 12.2579 9.31318 12.2041 8.90249C12.1502 8.49179 11.7736 8.20251 11.3629 8.25637L11.558 9.74363ZM9.75582 9.62642L9.27935 9.04722L9.27935 9.04722L9.75582 9.62642ZM8.26469 10.8523C8.18312 11.2584 8.4462 11.6537 8.85231 11.7353C9.25841 11.8169 9.65374 11.5538 9.73531 11.1477L8.26469 10.8523ZM21.2647 11.1477C21.3463 11.5538 21.7416 11.8169 22.1477 11.7353C22.5538 11.6537 22.8169 11.2584 22.7353 10.8523L21.2647 11.1477ZM21.2442 9.62642L20.7677 10.2056L20.7677 10.2056L21.2442 9.62642ZM19.6371 8.25637C19.2264 8.20251 18.8498 8.49179 18.7959 8.90249C18.7421 9.31318 19.0313 9.68978 19.442 9.74363L19.6371 8.25637ZM19.442 21.2564C19.0313 21.3102 18.7421 21.6868 18.7959 22.0975C18.8498 22.5082 19.2264 22.7975 19.6371 22.7436L19.442 21.2564ZM21.2442 21.3736L21.7207 21.9528L21.7207 21.9528L21.2442 21.3736ZM22.7353 20.1477C22.8169 19.7416 22.5538 19.3463 22.1477 19.2647C21.7416 19.1831 21.3463 19.4462 21.2647 19.8523L22.7353 20.1477ZM9.73531 19.8523C9.65374 19.4462 9.25841 19.1831 8.85231 19.2647C8.4462 19.3463 8.18312 19.7416 8.26469 20.1477L9.73531 19.8523ZM9.75582 21.3736L10.2323 20.7944L10.2323 20.7944L9.75582 21.3736ZM11.3629 22.7436C11.7736 22.7975 12.1502 22.5082 12.2041 22.0975C12.2579 21.6868 11.9687 21.3102 11.558 21.2564L11.3629 22.7436ZM14 21.25C13.5858 21.25 13.25 21.5858 13.25 22C13.25 22.4142 13.5858 22.75 14 22.75V21.25ZM17 22.75C17.4142 22.75 17.75 22.4142 17.75 22C17.75 21.5858 17.4142 21.25 17 21.25V22.75ZM22.75 14C22.75 13.5858 22.4142 13.25 22 13.25C21.5858 13.25 21.25 13.5858 21.25 14H22.75ZM21.25 17C21.25 17.4142 21.5858 17.75 22 17.75C22.4142 17.75 22.75 17.4142 22.75 17H21.25ZM14 9.75H17V8.25H14V9.75ZM8.25 14V17H9.75V14H8.25ZM11.3629 8.25637C10.5474 8.36331 9.85138 8.57665 9.27935 9.04722L10.2323 10.2056C10.4978 9.98717 10.8775 9.83286 11.558 9.74363L11.3629 8.25637ZM9.73531 11.1477C9.83167 10.668 9.98729 10.4072 10.2323 10.2056L9.27935 9.04722C8.69985 9.52394 8.40953 10.1312 8.26469 10.8523L9.73531 11.1477ZM22.7353 10.8523C22.5905 10.1312 22.3002 9.52394 21.7207 9.04722L20.7677 10.2056C21.0127 10.4072 21.1683 10.668 21.2647 11.1477L22.7353 10.8523ZM19.442 9.74363C20.1225 9.83286 20.5022 9.98717 20.7677 10.2056L21.7207 9.04722C21.1486 8.57665 20.4526 8.36331 19.6371 8.25637L19.442 9.74363ZM19.6371 22.7436C20.4526 22.6367 21.1486 22.4234 21.7207 21.9528L20.7677 20.7944C20.5022 21.0128 20.1225 21.1671 19.442 21.2564L19.6371 22.7436ZM21.2647 19.8523C21.1683 20.332 21.0127 20.5928 20.7677 20.7944L21.7207 21.9528C22.3002 21.4761 22.5905 20.8688 22.7353 20.1477L21.2647 19.8523ZM8.26469 20.1477C8.40953 20.8688 8.69985 21.4761 9.27934 21.9528L10.2323 20.7944C9.98729 20.5928 9.83167 20.332 9.73531 19.8523L8.26469 20.1477ZM11.558 21.2564C10.8775 21.1671 10.4978 21.0128 10.2323 20.7944L9.27934 21.9528C9.85137 22.4234 10.5474 22.6367 11.3629 22.7436L11.558 21.2564ZM14 22.75H17V21.25H14V22.75ZM21.25 14V17H22.75V14H21.25Z"/>
</svg>
