<svg width="24" height="24" viewBox="0 0 24 24" fill="020202" xmlns="http://www.w3.org/2000/svg">
  <path fill-rule="evenodd" clip-rule="evenodd" d="M11.9974 0.400024C5.59261 0.400024 0.398438 5.59351 0.398438 12.0004C0.398438 17.1248 3.72188 21.473 8.3314 23.0076C8.91178 23.1137 9.12327 22.7555 9.12327 22.4478C9.12327 22.1723 9.11331 21.443 9.10761 20.4753C5.88101 21.176 5.20023 18.92 5.20023 18.92C4.67256 17.5798 3.91202 17.223 3.91202 17.223C2.8588 16.5038 3.99178 16.5181 3.99178 16.5181C5.15608 16.6 5.7685 17.7137 5.7685 17.7137C6.8032 19.4862 8.4838 18.9741 9.14464 18.6772C9.25003 17.928 9.54983 17.4167 9.88096 17.1269C7.30524 16.8335 4.59707 15.8387 4.59707 11.3937C4.59707 10.1268 5.04927 9.09213 5.79129 8.28103C5.67166 7.98764 5.27358 6.80835 5.90523 5.21108C5.90523 5.21108 6.87868 4.89917 9.09479 6.39959C10.0198 6.14252 11.0125 6.01434 11.9988 6.00936C12.9844 6.01434 13.9763 6.14252 14.9028 6.39959C17.1175 4.89917 18.0895 5.21108 18.0895 5.21108C18.7226 6.80835 18.3245 7.98764 18.2056 8.28103C18.949 9.09213 19.3977 10.1268 19.3977 11.3937C19.3977 15.8501 16.6852 16.8307 14.1017 17.1177C14.5175 17.4759 14.8886 18.1837 14.8886 19.2661C14.8886 20.8164 14.8743 22.0676 14.8743 22.4478C14.8743 22.7583 15.0837 23.1194 15.6719 23.0061C20.2778 21.4687 23.5984 17.1241 23.5984 12.0004C23.5984 5.59351 18.4043 0.400024 11.9974 0.400024"/>
</svg>
