<svg width="34" height="34" viewBox="6 6 34 34" fill="none" xmlns="http://www.w3.org/2000/svg">
  <rect y="6.5" width="32" height="32" rx="12.5" x="6.811" style="stroke-width: 1.5px;"/>
  <path
    stroke-linecap="round"
    stroke-linejoin="round"
    stroke-width="1.5"
    d="M 20.708 14.585 L 19.988 14.585 C 18.397 14.585 17.107 15.789 17.107 17.275 L 17.107 19.964 C 17.107 21.31 16.242 23 12.784 23 C 14.225 23 17.107 22.806 17.107 26.034 L 17.107 28.724 C 17.107 30.21 18.397 31.414 19.988 31.414 L 20.708 31.414 M 25.913 14.585 L 26.633 14.585 C 28.226 14.585 29.515 15.789 29.515 17.275 L 29.515 19.964 C 29.515 21.31 30.379 23 33.837 23 C 32.397 23 29.515 22.806 29.515 26.034 L 29.515 28.724 C 29.515 30.21 28.226 31.414 26.633 31.414 L 25.913 31.414"/>
</svg>