<svg width="66" height="30" viewBox="0 0 66 30" fill="none" xmlns="http://www.w3.org/2000/svg">
  <path d="M1.91075 30C1.37117 30 0.92889 29.5719 0.911281 29.0326L0.000543954 1.14133C-0.0178977 0.576559 0.434936 0.108697 1.00001 0.108697H10.4487C11.0064 0.108697 11.4562 0.564748 11.4487 1.1223L11.3529 8.16272C11.3388 9.1974 12.713 9.5695 13.2229 8.66908L17.8448 0.507242C18.0223 0.193767 18.3548 0 18.715 0H26.9774C27.5176 0 27.9601 0.428947 27.9769 0.968836L28.208 8.38055C28.2401 9.40757 29.6144 9.72425 30.0926 8.81479L34.3895 0.643286C34.5623 0.314548 34.9032 0.108697 35.2746 0.108697H44.8253C45.5925 0.108697 46.074 0.936998 45.6942 1.60365L29.8069 29.495C29.6291 29.8072 29.2974 30 28.938 30H20.3375C19.8018 30 19.3612 29.5778 19.3384 29.0426L18.9812 20.6648C18.9388 19.6693 17.6256 19.3415 17.1202 20.2002L11.644 29.5071C11.4643 29.8125 11.1365 30 10.7821 30H1.91075Z" fill="#013553"/>
  <path d="M59.4122 1.09757C60.0305 0.0515891 61.3724 -0.319088 62.4117 0.302987L64.6881 1.61436C65.8852 2.30296 66.2932 3.83903 65.6093 5.04411C65.0637 6.00209 64.9767 6.87835 65.2739 7.54503L62.1796 8.68957C61.0277 7.14268 59.1918 6.14131 57.1234 6.14131C53.6358 6.14131 50.8086 8.98746 50.8084 12.498C50.8084 12.6295 50.8137 12.7603 50.8215 12.8898L50.8084 12.8953L50.8223 12.8999C51.0281 16.2235 53.7698 18.8547 57.1234 18.8547C58.9078 18.8547 60.5177 18.1086 61.6662 16.9109L65.1251 18.1897C65.1061 18.7171 65.2684 19.3183 65.6355 19.9557C66.3196 21.1476 65.9115 22.6976 64.7143 23.3863L62.4386 24.6969C61.3993 25.3193 60.0567 24.9485 59.4384 23.9023L59.2942 23.6509C58.097 21.5717 56.1498 21.5717 54.9657 23.6509L54.8208 23.9023C54.2025 24.9485 52.8607 25.3192 51.8213 24.6969L49.5449 23.3863C48.3477 22.6976 47.9403 21.1609 48.6245 19.9557C49.8214 17.8768 48.8478 16.1816 46.4668 16.1815C45.0855 16.1815 43.967 15.043 43.9668 13.6658V11.3348C43.9668 9.9443 45.0985 8.81838 46.4668 8.81838C48.8479 8.81826 49.8217 7.12314 48.6245 5.0573C47.9404 3.85224 48.3478 2.30304 49.5449 1.61436L51.8213 0.302987C52.8606 -0.319205 54.2026 0.051577 54.7946 1.09757L54.9395 1.34976C56.1368 3.42855 58.084 3.42874 59.268 1.34976L59.4122 1.09757Z" fill="#3B8EBF"/>
  <path d="M54.9608 13.4986H53.1765C53.3346 15.242 54.8705 16.4713 57.0726 16.4713C59.3425 16.4713 61.0703 15.119 61.0703 12.504C61.0703 9.93358 59.3425 8.52545 57.0726 8.52545C54.8705 8.52545 53.2894 9.833 53.1765 11.5093H54.9608C55.2093 10.66 55.7965 10.2577 57.0726 10.2577C58.4278 10.2577 59.3651 10.9506 59.3651 12.504C59.3651 14.0574 58.4278 14.7391 57.0726 14.7391C55.7513 14.7391 55.1754 14.2697 54.9608 13.4986Z" fill="#3B8EBF"/>
</svg>
